PathFileType	4	(X/Y/Z)	Patient4_TMGait_0pt6_02_left_05.trc.trc
DataRate	CameraRate	NumFrames	NumMarkers	Units	OrigDataRate	OrigDataStartFrame	OrigNumFrames
85.365853658537	85.365853658537	4	33	mm	85.365853658537	89	       141
Frame#	Time	Sacral			L.Shoulder			Chest			R.Shoulder			Neck			R.ASIS			L.ASIS			R.Thigh.Superior			R.Thigh.Lateral			R.Thigh.Inferior			R.Patella			L.Thigh.Superior			L.Thigh.Lateral			L.Thigh.Inferior			L.Patella			L.Shank.Superior			L.Shank.Lateral			L.Shank.Inferior			R.Shank.Superior			R.Shank.Lateral			R.Shank.Inferior			R.Heel			R.Midfoot.Superior			R.Midfoot.Lateral			R.Toe			L.Heel			L.Midfoot.Lateral			L.Midfoot.Superior			L.Toe			L.Elbow			L.Wrist			R.Elbow			R.Wrist			
		X1	Y1	Z1	X2	Y2	Z2	X3	Y3	Z3	X4	Y4	Z4	X5	Y5	Z5	X6	Y6	Z6	X7	Y7	Z7	X8	Y8	Z8	X9	Y9	Z9	X10	Y10	Z10	X11	Y11	Z11	X12	Y12	Z12	X13	Y13	Z13	X14	Y14	Z14	X15	Y15	Z15	X16	Y16	Z16	X17	Y17	Z17	X18	Y18	Z18	X19	Y19	Z19	X20	Y20	Z20	X21	Y21	Z21	X22	Y22	Z22	X23	Y23	Z23	X24	Y24	Z24	X25	Y25	Z25	X26	Y26	Z26	X27	Y27	Z27	X28	Y28	Z28	X29	Y29	Z29	X30	Y30	Z30	X31	Y31	Z31	X32	Y32	Z32	X33	Y33	Z33	

89	7.100857142857	717.901222726489	1005.666925676643	513.936416958249	886.755706991285	1440.463893073353	346.785268475021	993.871754433516	1366.758953378969	503.513950976929	910.259341619984	1430.814180208203	680.189456268598	870.450788046252	1493.866600706552	504.410024721226	944.836016418697	942.977085870037	628.918423659629	929.547359157265	962.719762163740	355.607840634314	997.407647647632	746.056922306447	604.591766973205	919.961535270315	633.509778123409	657.614723314543	1004.250278010179	587.631266555207	579.879249380000	1009.865006130866	500.039691212313	584.730624609105	982.289806244852	748.986691106638	377.766949381673	905.603579555525	629.946504287999	309.822879645213	998.920889322755	550.277932438700	364.984612589395	994.572720285457	462.272379967548	361.540483154573	923.456189379843	403.289004402090	358.755198305821	778.930256845646	366.895945567030	315.027560461026	761.435545857871	240.986514216911	374.550121783973	988.053425652233	410.099434208257	590.093622005180	920.780636323179	299.765719162349	644.173522372414	975.609952777756	210.292341291260	583.024898943304	855.389803751585	41.421116303930	540.865723227712	1023.955579507460	98.832141677410	583.711128062446	935.768229537727	36.307039307860	619.272340301333	1143.406466398805	49.361870353349	615.617615340933	568.227072620904	179.795719531245	421.234288511109	621.813723297284	140.886889476985	334.769242333193	728.153615821248	146.638004614031	351.917434817765	803.864839186994	39.310128605844	310.583675877189	881.317471292173	1086.434265091244	228.182396723846	1045.053608023632	881.741617636737	232.361458314781	848.522374590263	1082.045574236237	780.744309279316	910.306497645135	827.896173153837	773.167751092261	
90	7.112571428571	717.764504913046	1006.581283546208	516.486896537963	885.122306016250	1441.077431593003	347.950112838895	993.702061439268	1367.613432886916	503.825815872767	911.751325681451	1431.753185218103	681.252496691383	870.335798190551	1494.576703656106	505.894331357871	945.138923745308	943.645758972253	630.119506920077	928.561792795600	963.529833233258	356.941444794491	995.243033194919	745.332998932175	605.733563794193	916.826265515350	633.577861601459	658.829170555667	1000.174328841382	586.939622302854	580.537184868764	1004.831082109277	499.465483369675	585.276496548968	985.499469303011	752.691627062897	379.063815056371	912.331781488792	632.396075668238	310.168920325014	1007.639674783892	554.688585863056	365.318594465063	1005.148410749158	466.130505888284	361.510832545537	933.852500748847	406.505476504800	358.601349441943	788.895475743064	371.264744946650	315.100789185985	770.723500352060	245.207387601730	374.192645499714	982.670077537678	409.728989344565	590.611382774684	914.936139180594	299.649936849427	644.460141646469	969.261200933828	210.031834712252	583.182668425082	848.404890020786	41.411705902203	541.003050678663	1017.057124840289	98.627806866802	583.960641498773	928.760962425315	36.287093380473	619.389806908555	1136.391924994322	49.228634607452	615.748294334926	577.123002517843	185.551628527824	421.076658535521	630.172889008998	146.580723609618	334.252372655931	736.711403444901	150.848263852008	351.316358762915	811.064040413373	41.696304323088	309.086990342290	876.383350178327	1086.520307443062	230.765399050133	1030.220492184870	874.058209561040	233.095354595711	856.473181387533	1082.007293019051	783.702117934902	929.329984011317	830.764463488116	773.545136190570	
91	7.124285714286	717.460953225162	1007.388111726250	518.872066601143	883.501890367209	1441.513980241897	348.997416666096	993.502804453605	1368.273147273776	504.027697620192	913.232880905348	1432.594812599329	682.175575602856	870.213893355376	1495.175882814967	507.162759335015	945.313417452997	944.140197071657	631.320615767253	927.450348961897	964.229542678721	358.269543006487	993.173441900964	744.668342837224	606.590329016190	913.919063543325	633.610151094836	659.893492027161	996.310335462474	586.273115665099	581.030518822519	1000.040948748014	498.884945169711	585.671330992526	988.340743709185	756.406572646843	380.389929419794	918.604926494638	635.060258365534	310.487772323228	1015.711113899869	559.321231398481	365.703984147226	1015.194736106695	470.358409973834	361.494126922167	944.118600780062	409.911051018571	358.396224996674	799.060980150272	374.772979825538	315.035928409259	781.121352876605	248.424360721250	373.654067813497	977.523210214153	409.330982849180	590.968213126193	909.336273016311	299.550580934526	644.705595090606	963.018460744408	209.737635666903	583.238483805552	841.383722655404	41.434200804414	541.118085204270	1010.141916730845	98.391901098359	584.145311647994	921.722163853410	36.278897813831	619.483830016732	1129.371739122083	49.001355282036	615.858007931315	587.687942207853	188.640189085542	420.677278873123	640.539194792912	150.089310979864	333.525921891298	747.114617840184	153.947251400990	350.497848019556	821.138501625978	44.079142921051	307.448251462755	871.037568335546	1086.517570552311	233.077612937891	1014.783883258179	867.026357450078	233.696517920237	864.508247168208	1082.076900856867	786.620771787848	948.834623241891	834.464517380825	773.755347617889	
92	7.136000000000	717.003075974179	1008.081443665676	521.110207034030	881.914582218488	1441.794281184590	349.950266121742	993.271273901518	1368.746218292881	504.151103898281	914.677745021139	1433.349472165444	682.972844606000	870.092483787977	1495.676117779333	508.229481360270	945.372891991035	944.487762988124	632.501210413358	926.211774616035	964.855749092264	359.576796508994	991.245636986661	744.068544842506	607.188640452909	911.256191650810	633.609073348316	660.792034860786	992.700745365885	585.633715054614	581.377067646673	995.543496499434	498.295116836047	585.917467588847	990.812686424892	760.113699720794	381.748629800272	924.442570060232	637.891116680959	310.797267247363	1023.160171645549	564.110998496905	366.145615598870	1024.704085622834	474.895910833339	361.489567673594	954.246287072341	413.445689744197	358.144707197641	809.421339140868	377.345220622699	314.826273661388	792.643991332579	250.566830915356	372.929451986113	972.642085083993	408.903778304417	591.170396315105	903.998980737583	299.471453356381	644.920611521954	956.891878177411	209.412397825123	583.198269021115	834.333716682143	41.483522221505	541.210595400389	1003.204234706451	98.148774572533	584.260504257542	914.662149756836	36.281616133305	619.554814043197	1122.353015350811	48.700815230335	615.952817436569	599.912956086300	189.041131011680	419.997770147228	652.908254500459	151.337602562909	332.573135255780	759.391967771353	155.813922386623	349.462949955751	834.087177279388	46.257964416013	305.723135134108	865.294540080701	1086.467886421435	235.153083162349	998.837412751476	860.667587102466	234.181910669786	872.611028760435	1082.255814059702	789.449075714401	968.751033462341	839.085452080679	773.750106907046	
